<svg width="96" height="96" xmlns="http://www.w3.org/2000/svg" xmlns:xlink="http://www.w3.org/1999/xlink" xml:space="preserve" overflow="hidden"><defs><clipPath id="clip0"><rect x="-144" y="0" width="96" height="96"/></clipPath></defs><g clip-path="url(#clip0)" transform="translate(144 0)"><path d="M-136 20-136 76-56 76-56 20-136 20ZM-94.6 54.9C-95.4 55.7-96.6 55.7-97.4 54.9L-127 26-64.9 26-94.6 54.9ZM-110.5 47.7-130 67.3-130 28.6-110.5 47.7ZM-107.6 50.5-100.1 57.8C-98.9 58.9-97.4 59.5-95.9 59.5-94.4 59.5-92.9 58.9-91.7 57.8L-84.2 50.5-64.8 70-127.1 70-107.6 50.5ZM-81.5 47.7-62 28.7-62 67.2-81.5 47.7Z" fill="#FFFFFF"/></g></svg>