<svg width="261" height="261" xmlns="http://www.w3.org/2000/svg" xmlns:xlink="http://www.w3.org/1999/xlink" xml:space="preserve" overflow="hidden"><defs><clipPath id="clip0"><rect x="253" y="99" width="261" height="261"/></clipPath></defs><g clip-path="url(#clip0)" transform="translate(-253 -99)"><path d="M253 350.8 271.466 332.334 280.666 341.534 262.2 360 253 360 253 350.8ZM253 108.135 271.466 126.601 280.666 117.4 262.2 99 253 99 253 108.2ZM504.8 360 486.334 341.534 495.534 332.334 514 350.8 514 360 504.8 360ZM514 108.2 495.534 126.666 486.334 117.466 504.8 99 514 99 514 108.2ZM383.5 220.365 401.966 201.899 411.166 211.1 392.7 229.5 411.166 247.966 401.966 257.166 383.5 238.7 365.034 257.166 355.834 247.966 374.3 229.5 355.834 211.034 365.034 201.834 383.5 220.3Z" fill="#202020" fill-rule="evenodd"/></g></svg>