<svg width="96" height="96" xmlns="http://www.w3.org/2000/svg" xmlns:xlink="http://www.w3.org/1999/xlink" xml:space="preserve" overflow="hidden"><defs><clipPath id="clip0"><rect x="15" y="227" width="96" height="96"/></clipPath></defs><g clip-path="url(#clip0)" transform="translate(-15 -227)"><path d="M59.981 234.05 59.981 308.809 51.081 299.914C49.9212 298.754 48.0408 298.754 46.881 299.914 45.7212 301.074 45.7212 302.954 46.881 304.114L60.881 318.1C61.9856 319.26 63.8212 319.305 64.981 318.2 65.0151 318.168 65.0485 318.134 65.081 318.1L79.071 304.112C80.2308 303.007 80.2756 301.172 79.171 300.012 79.1385 299.978 79.1051 299.945 79.071 299.912 77.9664 298.752 76.1308 298.707 74.971 299.812 74.9369 299.844 74.9035 299.878 74.871 299.912L65.976 308.807 65.976 234.05C65.976 232.393 64.6329 231.05 62.976 231.05 61.3191 231.05 59.976 232.393 59.976 234.05Z" fill="#FFFFFF"/></g></svg>