<?xml version="1.0" standalone="no"?>
<!DOCTYPE svg PUBLIC "-//W3C//DTD SVG 1.0//EN" "http://www.w3.org/TR/2001/REC-SVG-20010904/DTD/svg10.dtd">
<svg xmlns="http://www.w3.org/2000/svg" xmlns:xlink="http://www.w3.org/1999/xlink" id="body_1" width="261" height="261">

<defs>
        <clipPath  id="1">

            <path clip-rule="evenodd" d="M253 99L514 99L514 360L253 360z" />        </clipPath>
</defs>

<g transform="matrix(1 0 0 1 0 0)">
	<g transform="matrix(1 0 0 1 -253 -99)" clip-path="url(#1)" >
        <path d="M253 350.8L271.466 332.334L280.666 341.534L262.2 360L253 360L253 350.8zM253 108.135L271.466 126.601L280.666 117.4L262.2 99L253 99L253 108.2zM504.8 360L486.334 341.534L495.534 332.334L514 350.8L514 360L504.8 360zM514 108.2L495.534 126.666L486.334 117.466L504.8 99L514 99L514 108.2zM383.5 220.365L401.966 201.899L411.166 211.1L392.7 229.5L411.166 247.966L401.966 257.166L383.5 238.7L365.034 257.166L355.834 247.966L374.3 229.5L355.834 211.034L365.034 201.834L383.5 220.3z" stroke="none" fill="#202020" fill-rule="nonzero" />
	</g>
</g>
</svg>