<svg width="96" height="96" xmlns="http://www.w3.org/2000/svg" xmlns:xlink="http://www.w3.org/1999/xlink" xml:space="preserve" overflow="hidden"><defs><clipPath id="clip0"><rect x="-96" y="70" width="96" height="96"/></clipPath></defs><g clip-path="url(#clip0)" transform="translate(96 -70)"><path d="M-56.8 99.2C-56 98.4-55.5 97.3-55.5 96.1-55.5 94.9-56 93.8-56.8 93L-70.6 79.3C-71.4 78.5-72.5 78-73.6 78-74.7 78-75.9 78.5-76.7 79.3L-78.2 80.8-58.3 100.7-56.8 99.2Z" fill="#FFFFFF"/><path d="M-36.7 134.5C-37.1 134.9-37.7 135.1-38.2 135.1-38.7 135.1-39.3 134.9-39.7 134.5L-64.5 109.8C-64.9 109.4-65.1 108.8-65.1 108.3-65.1 107.8-64.9 107.2-64.5 106.8L-61.4 103.8-81.3 83.9C-82.6 85.2-83.8 86.4-84.6 87.2-86.6 89.1-87.8 91.6-87.9 94.3-88.2 98.8-87.1 103.1-85.6 107.3-84 111-81.9 114.5-79.6 117.8-71.4 130.1-61.1 140.8-49.1 149.3-47.1 150.8-45 152.1-42.8 153.3-37.8 155.8-32.5 157.6-26.8 158-23 158.3-19.2 156.8-16.6 154L-13.9 151.3-33.7 131.4-36.7 134.5Z" fill="#FFFFFF"/><path d="M-9.3 140.6-23.1 126.8C-23.9 126-25 125.5-26.2 125.5-27.4 125.5-28.5 126-29.3 126.8L-30.8 128.4-10.9 148.3-9.4 146.8C-8.6 146-8.1 144.9-8.1 143.7-8.1 142.5-8.5 141.4-9.3 140.6Z" fill="#FFFFFF"/></g></svg>